<svg xmlns="http://www.w3.org/2000/svg" viewBox="0 0 1024 1024" width="1024" height="1024"><circle cx="512" cy="512" r="496" fill="#0a0a0a"/><path d="M464.95 274.75 Q464.95 257.28 477.33 244.64 Q489.85 232.00 507.31 232.00 Q524.90 232.00 537.02 244.64 Q549.27 257.28 549.27 274.75 Q549.27 292.73 537.02 305.37 Q524.90 317.88 507.31 317.88 Q489.85 317.88 477.33 305.37 Q464.95 292.73 464.95 274.75 Z M543.54 444.95 L543.54 677.58 Q543.54 730.88 545.10 744.82 Q546.80 758.64 556.96 765.94 Q567.26 773.23 593.32 773.23 L601.79 773.23 L601.79 792.00 L422.21 792.00 L422.21 773.23 L436.02 773.23 Q464.95 773.23 473.68 764.89 Q482.55 756.55 483.85 744.95 Q485.28 733.35 485.28 677.58 L485.28 576.58 Q485.28 517.93 479.81 504.90 Q474.34 491.87 465.08 488.61 Q455.96 485.35 433.15 485.35 L422.21 485.35 L422.21 466.58 Q494.67 459.28 534.68 444.95 L543.54 444.95 Z" fill="#f3ece2"/></svg>